HIERARCHY
ROOT hip
{
	OFFSET 0.000000 0.000000 0.000000
	CHANNELS 6 Xposition Yposition Zposition Xrotation Zrotation Yrotation 
	JOINT abdomen
	{
		OFFSET 0.000000 3.422050 0.000000
		CHANNELS 3 Xrotation Zrotation Yrotation 
		JOINT chest
		{
			OFFSET 0.000000 8.486693 -0.684411
			CHANNELS 3 Xrotation Zrotation Yrotation 
			JOINT neck
			{
				OFFSET 0.000000 10.266162 -0.273764
				CHANNELS 3 Xrotation Zrotation Yrotation 
				JOINT head
				{
					OFFSET 0.000000 3.148285 0.000000
					CHANNELS 3 Xrotation Zrotation Yrotation 
					End Site
					{
						OFFSET 0.000000 3.148289 0.000000
					}
				}
			}
			JOINT lCollar
			{
				OFFSET 3.422053 6.707223 -0.821293
				CHANNELS 3 Yrotation Zrotation Xrotation 
				JOINT lShldr
				{
					OFFSET 3.285171 0.000000 0.000000
					CHANNELS 3 Zrotation Yrotation Xrotation 
					JOINT lForeArm
					{
						OFFSET 10.129278 0.000000 0.000000
						CHANNELS 3 Yrotation Zrotation Xrotation 
						JOINT lHand
						{
							OFFSET 8.486692 0.000000 0.000000
							CHANNELS 3 Zrotation Yrotation Xrotation 
							End Site
							{
								OFFSET 4.106464 0.000000 0.000000
							}
						}
					}
				}
			}
			JOINT rCollar
			{
				OFFSET -3.558935 6.707223 -0.821293
				CHANNELS 3 Yrotation Zrotation Xrotation 
				JOINT rShldr
				{
					OFFSET -3.148289 0.000000 0.000000
					CHANNELS 3 Zrotation Yrotation Xrotation 
					JOINT rForeArm
					{
						OFFSET -10.266159 0.000000 0.000000
						CHANNELS 3 Yrotation Zrotation Xrotation 
						JOINT rHand
						{
							OFFSET -8.349810 0.000000 0.000000
							CHANNELS 3 Zrotation Yrotation Xrotation 
							End Site
							{
								OFFSET -4.106464 0.000000 0.000000
							}
						}
					}
				}
			}
		}
	}
	JOINT lThigh
	{
		OFFSET 5.338403 -1.642589 1.368821
		CHANNELS 3 Xrotation Zrotation Yrotation 
		JOINT lShin
		{
			OFFSET -2.053232 -20.121670 0.000000
			CHANNELS 3 Xrotation Zrotation Yrotation 
			JOINT lFoot
			{
				OFFSET 0.000000 -19.300380 -1.231939
				CHANNELS 3 Xrotation Yrotation Zrotation 
				End Site
				{
					OFFSET 0.000000 -2.463878 4.653993
				}
			}
		}
	}
	JOINT rThigh
	{
		OFFSET -5.338403 -1.642589 1.368821
		CHANNELS 3 Xrotation Zrotation Yrotation 
		JOINT rShin
		{
			OFFSET 2.053232 -20.121670 0.000000
			CHANNELS 3 Xrotation Zrotation Yrotation 
			JOINT rFoot
			{
				OFFSET 0.000000 -19.300380 -1.231939
				CHANNELS 3 Xrotation Yrotation Zrotation 
				End Site
				{
					OFFSET 0.000000 -2.463878 4.653993
				}
			}
		}
	}
}
MOTION
Frames: 18
Frame Time: 0.033264
0.000000 43.528500 0.000000 0.000000 0.000000 0.000000 0.000000 0.000000 0.000000 0.000000 0.000000 0.000000 0.000000 0.000000 0.000000 0.000000 0.000000 0.000000 0.000000 0.000000 0.000000 0.000000 0.000000 0.000000 0.000000 0.000000 0.000000 0.000000 0.000000 0.000000 0.000000 0.000000 0.000000 0.000000 0.000000 0.000000 0.000000 0.000000 0.000000 0.000000 0.000000 0.000000 0.000000 0.000000 0.000000 0.000000 0.000000 0.000000 0.000000 0.000000 0.000000 0.000000 0.000000 0.000000 0.000000 0.000000 0.000000 0.000000 0.000000 0.000000 
-2.069581 5.468128 18.139584 33.998215 1.195738 -179.634628 24.874884 0.222827 -1.213245 28.783298 -0.210596 -0.987341 -5.667589 5.252166 -0.212843 -14.898987 9.125076 -0.811785 4.642489 -21.722565 0.907256 -36.930927 -16.875051 2.422957 -14.218040 -46.007877 10.348386 -1.272999 -5.768565 -60.857956 15.823641 27.116354 -12.426209 15.014209 2.364614 -1.680048 48.636719 -4.596296 -11.898039 14.333996 13.399646 19.181690 -105.184792 41.608868 4.886064 112.724854 -19.642469 6.367166 41.663250 -19.462255 -8.030918 -117.092827 -40.348156 16.864370 121.112587 11.268569 -0.156987 11.834976 8.418776 2.057412 
-2.069581 5.468128 18.139584 33.992661 1.195531 -179.634567 24.874886 0.222827 -1.213245 28.783298 -0.210596 -0.987341 -5.521696 5.444955 -0.120631 -14.960515 9.149647 -0.771262 4.642489 -21.722565 0.907256 -36.930927 -16.875051 2.422957 -14.218040 -46.007877 10.348386 -1.272999 -5.768565 -60.857956 15.823641 27.116354 -12.426209 15.016075 2.018700 -1.672191 48.636719 -4.596296 -11.898039 14.333996 13.399647 19.181692 -105.184792 41.608868 4.886064 112.724854 -19.642469 6.367166 41.663250 -19.462255 -8.030918 -117.092842 -40.348160 16.864378 121.112587 11.268570 -0.156988 11.834976 8.418776 2.057412 
-2.069581 5.468128 18.139584 33.992661 1.195531 -179.634567 24.874886 0.222827 -1.213245 28.783302 -0.210596 -0.987341 -5.375380 5.637597 -0.027853 -15.022032 9.174257 -0.730756 4.642489 -21.722569 0.907256 -36.930927 -16.875051 2.422957 -14.218040 -46.007877 10.348386 -1.272999 -5.768565 -60.857956 15.823643 27.116356 -12.426212 15.017889 1.672523 -1.664340 48.636723 -4.596296 -11.898040 14.333996 13.399646 19.181690 -105.184792 41.608871 4.886066 112.724854 -19.642469 6.367166 41.663250 -19.462255 -8.030918 -117.092827 -40.348160 16.864368 121.112587 11.268569 -0.156987 11.834978 8.418777 2.057412 
-2.069581 5.468128 18.139584 33.992664 1.195531 -179.634567 24.874886 0.222827 -1.213245 28.783302 -0.210596 -0.987341 -5.228634 5.830085 0.065491 -15.083546 9.198915 -0.690271 4.642490 -21.722567 0.907256 -36.930927 -16.875051 2.422957 -14.218044 -46.007885 10.348386 -1.272999 -5.768566 -60.857956 15.823641 27.116356 -12.426210 15.019667 1.326089 -1.656497 48.636723 -4.596296 -11.898040 14.333998 13.399647 19.181692 -105.184807 41.608875 4.886065 112.724869 -19.642471 6.367166 41.663258 -19.462257 -8.030918 -117.092842 -40.348160 16.864378 121.112587 11.268570 -0.156988 11.834977 8.418777 2.057412 
-2.069581 5.468128 18.139584 33.992661 1.195531 -179.634567 24.874882 0.222827 -1.213245 28.783298 -0.210596 -0.987341 -5.081460 6.022418 0.159405 -15.145050 9.223619 -0.649804 4.642489 -21.722563 0.907256 -36.930927 -16.875050 2.422957 -14.218040 -46.007877 10.348386 -1.272999 -5.768564 -60.857948 15.823640 27.116352 -12.426208 15.021391 0.979404 -1.648660 48.636719 -4.596296 -11.898039 14.333994 13.399646 19.181690 -105.184784 41.608864 4.886063 112.724854 -19.642469 6.367167 41.663250 -19.462255 -8.030918 -117.092827 -40.348156 16.864370 121.112587 11.268569 -0.156987 11.834974 8.418776 2.057412 
-2.069581 5.468128 18.139584 33.992661 1.195531 -179.634567 24.874884 0.222827 -1.213245 28.783298 -0.210596 -0.987341 -4.933853 6.214592 0.253888 -15.206551 9.248370 -0.609357 4.642488 -21.722565 0.907256 -36.930927 -16.875051 2.422957 -14.218040 -46.007870 10.348386 -1.272999 -5.768565 -60.857956 15.823640 27.116352 -12.426209 15.023071 0.632473 -1.640828 48.636715 -4.596296 -11.898039 14.333996 13.399645 19.181690 -105.184776 41.608864 4.886067 112.724854 -19.642469 6.367166 41.663250 -19.462255 -8.030918 -117.092827 -40.348156 16.864370 121.112587 11.268569 -0.156987 11.834976 8.418776 2.057412 
-2.069581 5.468128 18.139584 33.992661 1.195531 -179.634567 24.874884 0.222827 -1.213245 28.783298 -0.210596 -0.987341 -4.785811 6.406602 0.348944 -15.268044 9.273167 -0.568929 4.642489 -21.722565 0.907256 -36.930927 -16.875051 2.422957 -14.218040 -46.007877 10.348386 -1.272999 -5.768565 -60.857956 15.823641 27.116354 -12.426209 15.024705 0.285304 -1.633001 48.636719 -4.596296 -11.898039 14.333996 13.399646 19.181690 -105.184792 41.608868 4.886064 112.724854 -19.642469 6.367166 41.663250 -19.462255 -8.030918 -117.092827 -40.348156 16.864370 121.112587 11.268569 -0.156987 11.834976 8.418776 2.057412 
-2.069581 5.468128 18.139584 33.992661 1.195531 -179.634567 24.874886 0.222827 -1.213245 28.783298 -0.210596 -0.987341 -4.637333 6.598444 0.444574 -15.329532 9.298008 -0.528520 4.642489 -21.722565 0.907256 -36.930927 -16.875051 2.422957 -14.218040 -46.007877 10.348386 -1.272999 -5.768565 -60.857956 15.823641 27.116354 -12.426209 15.026294 -0.062099 -1.625179 48.636719 -4.596296 -11.898039 14.333996 13.399646 19.181690 -105.184792 41.608868 4.886064 112.724854 -19.642469 6.367166 41.663258 -19.462257 -8.030918 -117.092827 -40.348156 16.864370 121.112587 11.268569 -0.156987 11.834976 8.418776 2.057412 
-2.069581 5.468128 18.139584 33.992661 1.195531 -179.634567 24.874884 0.222827 -1.213245 28.783298 -0.210596 -0.987341 -4.488415 6.790113 0.540779 -15.391015 9.322896 -0.488131 4.642489 -21.722567 0.907256 -36.930927 -16.875051 2.422957 -14.218041 -46.007881 10.348388 -1.272999 -5.768565 -60.857956 15.823643 27.116356 -12.426210 15.027832 -0.409727 -1.617361 48.636719 -4.596296 -11.898039 14.333996 13.399646 19.181690 -105.184792 41.608868 4.886064 112.724854 -19.642469 6.367166 41.663250 -19.462255 -8.030918 -117.092827 -40.348160 16.864374 121.112587 11.268569 -0.156987 11.834978 8.418777 2.057412 
-2.069581 5.468128 18.139584 33.992661 1.195531 -179.634567 24.874886 0.222827 -1.213245 28.783302 -0.210596 -0.987341 -4.339056 6.981608 0.637562 -15.452491 9.347829 -0.447761 4.642489 -21.722567 0.907256 -36.930927 -16.875051 2.422957 -14.218041 -46.007881 10.348388 -1.272999 -5.768565 -60.857956 15.823641 27.116356 -12.426210 15.029326 -0.757577 -1.609547 48.636723 -4.596296 -11.898040 14.333996 13.399646 19.181690 -105.184792 41.608868 4.886064 112.724854 -19.642469 6.367166 41.663250 -19.462255 -8.030918 -117.092827 -40.348156 16.864370 121.112587 11.268569 -0.156987 11.834977 8.418777 2.057412 
-2.069581 5.468128 18.139584 33.992664 1.195531 -179.634567 24.874882 0.222827 -1.213245 28.783298 -0.210596 -0.987341 -4.189253 7.172923 0.734925 -15.513959 9.372806 -0.407412 4.642489 -21.722565 0.907256 -36.930923 -16.875048 2.422956 -14.218040 -46.007877 10.348383 -1.272999 -5.768565 -60.857956 15.823640 27.116352 -12.426208 15.030774 -1.105640 -1.601737 48.636719 -4.596296 -11.898039 14.333994 13.399646 19.181690 -105.184792 41.608868 4.886064 112.724854 -19.642467 6.367165 41.663246 -19.462255 -8.030918 -117.092819 -40.348152 16.864368 121.112572 11.268568 -0.156987 11.834974 8.418776 2.057412 
-2.069581 5.468128 18.139584 33.992657 1.195531 -179.634567 24.874884 0.222827 -1.213245 28.783298 -0.210596 -0.987341 -4.039004 7.364050 0.832869 -15.575422 9.397830 -0.367082 4.642489 -21.722565 0.907256 -36.930927 -16.875051 2.422957 -14.218040 -46.007877 10.348386 -1.272999 -5.768565 -60.857956 15.823640 27.116352 -12.426208 15.032176 -1.453912 -1.593930 48.636719 -4.596296 -11.898038 14.333996 13.399645 19.181690 -105.184792 41.608868 4.886065 112.724854 -19.642469 6.367166 41.663246 -19.462255 -8.030919 -117.092827 -40.348156 16.864372 121.112587 11.268569 -0.156987 11.834976 8.418776 2.057412 
-2.069581 5.468128 18.139584 33.992661 1.195531 -179.634567 24.874884 0.222827 -1.213245 28.783298 -0.210596 -0.987341 -3.888307 7.554993 0.931395 -15.636876 9.422900 -0.326771 4.642489 -21.722565 0.907256 -36.930927 -16.875051 2.422957 -14.218040 -46.007877 10.348386 -1.272999 -5.768565 -60.857956 15.823641 27.116354 -12.426209 15.033533 -1.802385 -1.586126 48.636719 -4.596296 -11.898039 14.333996 13.399646 19.181690 -105.184784 41.608864 4.886065 112.724854 -19.642469 6.367166 41.663250 -19.462255 -8.030918 -117.092819 -40.348156 16.864368 121.112587 11.268569 -0.156987 11.834976 8.418776 2.057412 
-2.069581 5.468128 18.139584 33.992661 1.195531 -179.634567 24.874884 0.222827 -1.213245 28.783298 -0.210596 -0.987341 -3.737159 7.745741 1.030507 -15.698322 9.448013 -0.286481 4.642489 -21.722565 0.907256 -36.930927 -16.875051 2.422957 -14.218040 -46.007877 10.348386 -1.272999 -5.768565 -60.857956 15.823641 27.116354 -12.426209 15.034842 -2.151054 -1.578324 48.636719 -4.596296 -11.898039 14.333996 13.399646 19.181690 -105.184792 41.608868 4.886064 112.724854 -19.642469 6.367166 41.663250 -19.462255 -8.030918 -117.092827 -40.348156 16.864370 121.112587 11.268569 -0.156987 11.834976 8.418776 2.057412 
-2.069581 5.468128 18.139584 33.992661 1.195531 -179.634567 24.874884 0.222827 -1.213245 28.783298 -0.210596 -0.987341 -3.585558 7.936292 1.130205 -15.759766 9.473173 -0.246211 4.642489 -21.722565 0.907256 -36.930931 -16.875053 2.422957 -14.218040 -46.007877 10.348386 -1.272999 -5.768565 -60.857956 15.823641 27.116354 -12.426209 15.036103 -2.499912 -1.570523 48.636723 -4.596296 -11.898040 14.333996 13.399647 19.181692 -105.184792 41.608875 4.886069 112.724869 -19.642473 6.367167 41.663250 -19.462255 -8.030918 -117.092827 -40.348160 16.864374 121.112572 11.268571 -0.156988 11.834977 8.418777 2.057412 
-2.069581 5.468128 18.139584 33.992661 1.195531 -179.634567 24.874884 0.222827 -1.213245 28.783302 -0.210596 -0.987341 -3.433503 8.126645 1.230491 -15.821203 9.498381 -0.205961 4.642489 -21.722565 0.907256 -36.930931 -16.875053 2.422957 -14.218042 -46.007877 10.348385 -1.272999 -5.768565 -60.857956 15.823641 27.116356 -12.426210 15.037321 -2.848953 -1.562724 48.636723 -4.596296 -11.898040 14.333996 13.399646 19.181690 -105.184792 41.608868 4.886064 112.724869 -19.642473 6.367167 41.663250 -19.462255 -8.030918 -117.092827 -40.348160 16.864376 121.112587 11.268569 -0.156987 11.834977 8.418777 2.057412 
-2.069581 5.468128 18.139584 33.992664 1.195531 -179.634567 24.874882 0.222827 -1.213245 28.783298 -0.210596 -0.987341 -3.280990 8.316793 1.331368 -15.882633 9.523632 -0.165730 4.642488 -21.722565 0.907256 -36.930927 -16.875051 2.422957 -14.218039 -46.007874 10.348382 -1.272998 -5.768564 -60.857956 15.823638 27.116350 -12.426208 15.038487 -3.198170 -1.554926 48.636719 -4.596296 -11.898039 14.333994 13.399647 19.181688 -105.184792 41.608868 4.886064 112.724854 -19.642469 6.367166 41.663246 -19.462255 -8.030919 -117.092827 -40.348156 16.864370 121.112572 11.268569 -0.156988 11.834975 8.418776 2.057412 
